<?xml version="1.0" encoding="UTF-8" standalone="no"?>
<!-- Generated by graphviz version 2.26.3 (20100126.1600)
 -->

<!-- Title: controllers_diagram Pages: 1 -->

<svg
   xmlns:dc="http://purl.org/dc/elements/1.1/"
   xmlns:cc="http://creativecommons.org/ns#"
   xmlns:rdf="http://www.w3.org/1999/02/22-rdf-syntax-ns#"
   xmlns:svg="http://www.w3.org/2000/svg"
   xmlns="http://www.w3.org/2000/svg"
   xmlns:sodipodi="http://sodipodi.sourceforge.net/DTD/sodipodi-0.dtd"
   xmlns:inkscape="http://www.inkscape.org/namespaces/inkscape"
   width="1140.7688"
   height="348.76624"
   viewBox="0 0 912.34873 279.01299"
   id="svg2"
   version="1.1"
   inkscape:version="0.48.5 r10040"
   sodipodi:docname="controllers_brief.svg">
  <metadata
     id="metadata93">
    <rdf:RDF>
      <cc:Work
         rdf:about="">
        <dc:format>image/svg+xml</dc:format>
        <dc:type
           rdf:resource="http://purl.org/dc/dcmitype/StillImage" />
        <dc:title></dc:title>
      </cc:Work>
    </rdf:RDF>
  </metadata>
  <defs
     id="defs91" />
  <sodipodi:namedview
     pagecolor="#ffffff"
     bordercolor="#666666"
     borderopacity="1"
     objecttolerance="10"
     gridtolerance="10"
     guidetolerance="10"
     inkscape:pageopacity="0"
     inkscape:pageshadow="2"
     inkscape:window-width="1920"
     inkscape:window-height="1032"
     id="namedview89"
     showgrid="false"
     fit-margin-top="20"
     fit-margin-left="20"
     fit-margin-right="20"
     fit-margin-bottom="20"
     inkscape:zoom="1.1859712"
     inkscape:cx="570.48501"
     inkscape:cy="247.5"
     inkscape:window-x="0"
     inkscape:window-y="26"
     inkscape:window-maximized="1"
     inkscape:current-layer="svg2" />
  <g
     class="node"
     id="node2"
     transform="translate(14.888005,263.513)">
    <title
       id="title23">MeasureSessionsController</title>
    <ellipse
       style="fill:none;stroke:#000000"
       sodipodi:ry="18"
       sodipodi:rx="137.01801"
       sodipodi:cy="-102.96"
       sodipodi:cx="138.5"
       d="m 275.51801,-102.96 c 0,9.941126 -61.34506,18.000001 -137.01801,18.000001 -75.672955,0 -137.0180054,-8.058875 -137.0180054,-18.000001 0,-9.94112 61.3450504,-18 137.0180054,-18 75.67295,0 137.01801,8.05888 137.01801,18 z"
       id="ellipse25"
       ry="18"
       rx="137.01801"
       cy="-102.96"
       cx="138.5" />
    <text
       style="font-size:14px;text-anchor:middle;font-family:'Times Roman,serif'"
       id="text27"
       font-size="14.00"
       y="-98.359802"
       x="138.5">MeasureSessionsController</text>
  </g>
  <g
     class="node"
     id="node3"
     transform="translate(14.888005,263.513)">
    <title
       id="title30">MeasureDefinitionsController</title>
    <ellipse
       style="fill:none;stroke:#000000"
       sodipodi:ry="18"
       sodipodi:rx="146.91"
       sodipodi:cy="-19.4603"
       sodipodi:cx="724.78802"
       d="m 871.69803,-19.4603 c 0,9.9411251 -65.77385,17.9999996 -146.91001,17.9999996 -81.13615,0 -146.91,-8.0588745 -146.91,-17.9999996 0,-9.941126 65.77385,-18 146.91,-18 81.13616,0 146.91001,8.058874 146.91001,18 z"
       id="ellipse32"
       ry="18"
       rx="146.91"
       cy="-19.4603"
       cx="724.78802" />
    <text
       style="font-size:14px;text-anchor:middle;font-family:'Times Roman,serif'"
       id="text34"
       font-size="14.00"
       y="-14.8603"
       x="724.78802">MeasureDefinitionsController</text>
  </g>
  <g
     class="node"
     id="node4"
     transform="translate(14.888005,263.513)">
    <title
       id="title37">MeasureTransfersController</title>
    <ellipse
       style="fill:none;stroke:#000000"
       sodipodi:ry="18"
       sodipodi:rx="139.03101"
       sodipodi:cy="-19"
       sodipodi:cx="412.15399"
       d="m 551.185,-19 c 0,9.9411255 -62.2463,18 -139.03101,18 -76.7847,0 -139.031,-8.0588745 -139.031,-18 0,-9.941125 62.2463,-18 139.031,-18 76.78471,0 139.03101,8.058875 139.03101,18 z"
       id="ellipse39"
       ry="18"
       rx="139.03101"
       cy="-19"
       cx="412.15399" />
    <text
       style="font-size:14px;text-anchor:middle;font-family:'Times Roman,serif'"
       id="text41"
       font-size="14.00"
       y="-14.4"
       x="412.15399">MeasureTransfersController</text>
  </g>
  <g
     class="node"
     id="node5"
     transform="translate(14.888005,263.513)">
    <title
       id="title44">WelcomeController</title>
    <ellipse
       style="fill:none;stroke:#000000"
       sodipodi:ry="18"
       sodipodi:rx="99.952202"
       sodipodi:cy="-229.013"
       sodipodi:cx="307.76801"
       d="m 407.72021,-229.013 c 0,9.94113 -44.75013,18 -99.9522,18 -55.20208,0 -99.95221,-8.05887 -99.95221,-18 0,-9.94113 44.75013,-18 99.95221,-18 55.20207,0 99.9522,8.05887 99.9522,18 z"
       id="ellipse46"
       ry="18"
       rx="99.952202"
       cy="-229.013"
       cx="307.76801" />
    <text
       style="font-size:14px;text-anchor:middle;font-family:'Times Roman,serif'"
       id="text48"
       font-size="14.00"
       y="-224.41299"
       x="307.76801">WelcomeController</text>
  </g>
  <g
     class="node"
     id="node6"
     transform="translate(14.888005,263.513)">
    <title
       id="title51">WaitingJobsController</title>
    <ellipse
       style="fill:none;stroke:#000000"
       sodipodi:ry="18"
       sodipodi:rx="110.857"
       sodipodi:cy="-212.642"
       sodipodi:cx="770.23999"
       d="m 881.09699,-212.642 c 0,9.94113 -49.63237,18 -110.857,18 -61.22463,0 -110.857,-8.05887 -110.857,-18 0,-9.94112 49.63237,-18 110.857,-18 61.22463,0 110.857,8.05888 110.857,18 z"
       id="ellipse53"
       ry="18"
       rx="110.857"
       cy="-212.642"
       cx="770.23999" />
    <text
       style="font-size:14px;text-anchor:middle;font-family:'Times Roman,serif'"
       id="text55"
       font-size="14.00"
       y="-208.04201"
       x="770.23999">WaitingJobsController</text>
  </g>
  <g
     class="node"
     id="node7"
     transform="translate(14.888005,263.513)">
    <title
       id="title58">ApplicationController</title>
    <ellipse
       style="fill:none;stroke:#000000"
       sodipodi:ry="18"
       sodipodi:rx="110.015"
       sodipodi:cy="-202.483"
       sodipodi:cx="532.82599"
       d="m 642.84099,-202.483 c 0,9.94112 -49.25539,18 -110.015,18 -60.75961,0 -110.015,-8.05888 -110.015,-18 0,-9.94113 49.25539,-18 110.015,-18 60.75961,0 110.015,8.05887 110.015,18 z"
       id="ellipse60"
       ry="18"
       rx="110.015"
       cy="-202.483"
       cx="532.82599" />
    <text
       style="font-size:14px;text-anchor:middle;font-family:'Times Roman,serif'"
       id="text62"
       font-size="14.00"
       y="-197.883"
       x="532.82599">ApplicationController</text>
  </g>
  <g
     class="edge"
     id="edge2"
     transform="translate(14.888005,263.513)">
    <title
       id="title65">ApplicationController-&gt;MeasureSessionsController</title>
    <path
       style="fill:none;stroke:#000000"
       inkscape:connector-curvature="0"
       id="path67"
       d="m 472.936,-187.368 c -73.146,18.461 -196.333,49.553 -271.038,68.407" />
  </g>
  <g
     class="edge"
     id="edge4"
     transform="translate(14.888005,263.513)">
    <title
       id="title70">ApplicationController-&gt;MeasureDefinitionsController</title>
    <path
       style="fill:none;stroke:#000000"
       inkscape:connector-curvature="0"
       id="path72"
       d="m 551.582,-184.601 c 36.698,34.99 117.615,112.1379 154.375,147.1859" />
  </g>
  <g
     class="edge"
     id="edge6"
     transform="translate(14.888005,263.513)">
    <title
       id="title75">ApplicationController-&gt;MeasureTransfersController</title>
    <path
       style="fill:none;stroke:#000000"
       inkscape:connector-curvature="0"
       id="path77"
       d="M 521.036,-184.556 C 497.966,-149.478 447.1,-72.1361 423.993,-37" />
  </g>
  <g
     class="edge"
     id="edge8"
     transform="translate(14.888005,263.513)">
    <title
       id="title80">ApplicationController-&gt;WelcomeController</title>
    <path
       style="fill:none;stroke:#000000"
       inkscape:connector-curvature="0"
       id="path82"
       d="m 443.554,-213.007 c -17.182,-2.025 -35.119,-4.14 -52.115,-6.143" />
  </g>
  <g
     class="edge"
     id="edge10"
     transform="translate(14.888005,263.513)">
    <title
       id="title85">ApplicationController-&gt;WaitingJobsController</title>
    <path
       style="fill:none;stroke:#000000"
       inkscape:connector-curvature="0"
       id="path87"
       d="m 639.38,-207.043 c 7.766,-0.332 15.602,-0.667 23.373,-1" />
  </g>
</svg>
