<?xml version="1.0" encoding="UTF-8" standalone="no"?>
<!-- Generated by graphviz version 2.26.3 (20100126.1600)
 -->

<!-- Title: models_diagram Pages: 1 -->

<svg
   xmlns:dc="http://purl.org/dc/elements/1.1/"
   xmlns:cc="http://creativecommons.org/ns#"
   xmlns:rdf="http://www.w3.org/1999/02/22-rdf-syntax-ns#"
   xmlns:svg="http://www.w3.org/2000/svg"
   xmlns="http://www.w3.org/2000/svg"
   xmlns:sodipodi="http://sodipodi.sourceforge.net/DTD/sodipodi-0.dtd"
   xmlns:inkscape="http://www.inkscape.org/namespaces/inkscape"
   width="426.04074"
   height="386.25"
   viewBox="0 0 340.83259 309"
   id="svg2"
   version="1.1"
   inkscape:version="0.48.5 r10040"
   sodipodi:docname="models_brief.svg">
  <metadata
     id="metadata163">
    <rdf:RDF>
      <cc:Work
         rdf:about="">
        <dc:format>image/svg+xml</dc:format>
        <dc:type
           rdf:resource="http://purl.org/dc/dcmitype/StillImage" />
        <dc:title />
      </cc:Work>
    </rdf:RDF>
  </metadata>
  <defs
     id="defs161" />
  <sodipodi:namedview
     pagecolor="#ffffff"
     bordercolor="#666666"
     borderopacity="1"
     objecttolerance="10"
     gridtolerance="10"
     guidetolerance="10"
     inkscape:pageopacity="0"
     inkscape:pageshadow="2"
     inkscape:window-width="1920"
     inkscape:window-height="1032"
     id="namedview159"
     showgrid="false"
     inkscape:zoom="1.1146628"
     inkscape:cx="252.79375"
     inkscape:cy="208.125"
     inkscape:window-x="0"
     inkscape:window-y="26"
     inkscape:window-maximized="1"
     inkscape:current-layer="svg2"
     fit-margin-top="20"
     fit-margin-left="2"
     fit-margin-right="20"
     fit-margin-bottom="20" />
  <g
     class="node"
     id="node2"
     transform="translate(-267.765,292.5)">
    <title
       id="title23">MeasureTransfer</title>
    <ellipse
       style="fill:none;stroke:#000000"
       sodipodi:ry="18"
       sodipodi:rx="88.047997"
       sodipodi:cy="-18"
       sodipodi:cx="415"
       d="m 503.048,-18 c 0,9.9411255 -39.42043,18 -88.048,18 -48.62757,0 -88.048,-8.0588745 -88.048,-18 0,-9.941125 39.42043,-18 88.048,-18 48.62757,0 88.048,8.058875 88.048,18 z"
       id="ellipse25"
       ry="18"
       rx="88.047997"
       cy="-18"
       cx="415" />
    <text
       style="font-size:14px;text-anchor:middle;font-family:'Times Roman,serif'"
       id="text27"
       font-size="14.00"
       y="-13.4"
       x="415">MeasureTransfer</text>
  </g>
  <g
     class="node"
     id="node4"
     transform="translate(-267.765,292.5)">
    <title
       id="title37">MeasureSession</title>
    <ellipse
       style="fill:none;stroke:#000000"
       sodipodi:ry="18"
       sodipodi:rx="86.035599"
       sodipodi:cy="-90"
       sodipodi:cx="415"
       d="m 501.0356,-90 c 0,9.941125 -38.51945,18 -86.0356,18 -47.51615,0 -86.0356,-8.058875 -86.0356,-18 0,-9.941125 38.51945,-18 86.0356,-18 47.51615,0 86.0356,8.058875 86.0356,18 z"
       id="ellipse39"
       ry="18"
       rx="86.035599"
       cy="-90"
       cx="415" />
    <text
       style="font-size:14px;text-anchor:middle;font-family:'Times Roman,serif'"
       id="text41"
       font-size="14.00"
       y="-85.400002"
       x="415">MeasureSession</text>
  </g>
  <g
     class="edge"
     id="edge6"
     transform="translate(-267.765,292.5)">
    <title
       id="title44">MeasureSession-&gt;MeasureTransfer</title>
    <path
       style="fill:none;stroke:#d9e77f"
       inkscape:connector-curvature="0"
       id="path46"
       d="m 415,-63.8144 c 0,5.5369 0,11.4091 0,17.0359" />
    <ellipse
       style="fill:none;stroke:#d9e77f"
       sodipodi:ry="4"
       sodipodi:rx="4"
       sodipodi:cy="-67.831398"
       sodipodi:cx="415"
       d="m 419,-67.831398 c 0,2.209139 -1.79086,4 -4,4 -2.20914,0 -4,-1.790861 -4,-4 0,-2.209139 1.79086,-4 4,-4 2.20914,0 4,1.790861 4,4 z"
       id="ellipse48"
       ry="4"
       rx="4"
       cy="-67.831398"
       cx="415" />
    <polygon
       style="fill:#d9e77f;stroke:#d9e77f"
       id="polygon50"
       points="415,-46.4133 415,-46.4133 415,-46.4133 419.5,-36.4132 415,-41.4133 415,-36.4133 415,-36.4133 415,-36.4133 415,-41.4133 410.5,-36.4133 " />
  </g>
  <g
     class="node"
     id="node8"
     transform="translate(-267.765,292.5)">
    <title
       id="title79">MeasureDefinition</title>
    <ellipse
       style="fill:none;stroke:#000000"
       sodipodi:ry="18"
       sodipodi:rx="96.097603"
       sodipodi:cy="-162"
       sodipodi:cx="496"
       d="m 592.0976,-162 c 0,9.94113 -43.02436,18 -96.0976,18 -53.07324,0 -96.0976,-8.05887 -96.0976,-18 0,-9.94113 43.02436,-18 96.0976,-18 53.07324,0 96.0976,8.05887 96.0976,18 z"
       id="ellipse81"
       ry="18"
       rx="96.097603"
       cy="-162"
       cx="496" />
    <text
       style="font-size:14px;text-anchor:middle;font-family:'Times Roman,serif'"
       id="text83"
       font-size="14.00"
       y="-157.39999"
       x="496">MeasureDefinition</text>
  </g>
  <g
     class="edge"
     id="edge18"
     transform="translate(-267.765,292.5)">
    <title
       id="title86">MeasureDefinition-&gt;MeasureTransfer</title>
    <path
       style="fill:none;stroke:#388e71"
       inkscape:connector-curvature="0"
       id="path88"
       d="m 509.151,-134.353 c 6.886,18.752 11.837,43.4686 0.849,62.353 -8.612,14.8015 -22.962,25.8786 -37.933,34.0175" />
    <polygon
       style="fill:#388e71;stroke:#388e71"
       id="polygon90"
       points="509.074,-134.544 509.074,-134.544 509.074,-134.544 501.159,-142.134 507.203,-139.181 505.333,-143.817 505.333,-143.817 505.333,-143.817 507.203,-139.181 509.506,-145.501 " />
    <polygon
       style="fill:#388e71;stroke:#388e71"
       id="polygon92"
       points="471.649,-37.7727 471.649,-37.7727 471.649,-37.7727 464.73,-29.2655 467.18,-35.5301 462.711,-33.2875 462.711,-33.2875 462.711,-33.2875 467.18,-35.5301 460.693,-37.3094 " />
  </g>
  <g
     class="edge"
     id="edge16"
     transform="translate(-267.765,292.5)">
    <title
       id="title95">MeasureDefinition-&gt;MeasureSession</title>
    <path
       style="fill:none;stroke:#2f78da"
       inkscape:connector-curvature="0"
       id="path97"
       d="m 469.859,-138.763 c -8.806,7.827 -18.653,16.579 -27.546,24.485" />
    <ellipse
       style="fill:none;stroke:#2f78da"
       sodipodi:ry="4.00002"
       sodipodi:rx="4.00002"
       sodipodi:cy="-141.545"
       sodipodi:cx="472.98801"
       d="m 476.98803,-141.545 c 0,2.20915 -1.79087,4.00002 -4.00002,4.00002 -2.20915,0 -4.00002,-1.79087 -4.00002,-4.00002 0,-2.20915 1.79087,-4.00002 4.00002,-4.00002 2.20915,0 4.00002,1.79087 4.00002,4.00002 z"
       id="ellipse99"
       ry="4.00002"
       rx="4.00002"
       cy="-141.545"
       cx="472.98801" />
    <polygon
       style="fill:#2f78da;stroke:#2f78da"
       id="polygon101"
       points="442.266,-114.237 442.266,-114.237 442.266,-114.237 437.782,-104.23 438.529,-110.915 434.792,-107.593 434.792,-107.593 434.792,-107.593 438.529,-110.915 431.803,-110.956 " />
  </g>
  <g
     class="node"
     id="node10"
     transform="translate(-267.765,292.5)">
    <title
       id="title116">ActiveRecord::Base</title>
    <ellipse
       style="fill:none;stroke:#000000"
       sodipodi:ry="18"
       sodipodi:rx="102.135"
       sodipodi:cy="-258"
       sodipodi:cx="372"
       d="m 474.135,-258 c 0,9.94113 -45.7274,18 -102.135,18 -56.4076,0 -102.135,-8.05887 -102.135,-18 0,-9.94113 45.7274,-18 102.135,-18 56.4076,0 102.135,8.05887 102.135,18 z"
       id="ellipse118"
       ry="18"
       rx="102.135"
       cy="-258"
       cx="372" />
    <text
       style="font-size:14px;text-anchor:middle;font-family:'Times Roman,serif'"
       id="text120"
       font-size="14.00"
       y="-253.39999"
       x="372">ActiveRecord::Base</text>
  </g>
  <g
     class="edge"
     id="edge2"
     transform="translate(-267.765,292.5)">
    <title
       id="title123">ActiveRecord::Base-&gt;MeasureTransfer</title>
    <path
       style="fill:none;stroke:#000000"
       inkscape:connector-curvature="0"
       id="path125"
       d="M 358.189,-239.913 C 333.537,-205.248 287.455,-127.934 320,-72 c 10.4,17.8735 29.166,30.3162 47.289,38.7125" />
  </g>
  <g
     class="edge"
     id="edge8"
     transform="translate(-267.765,292.5)">
    <title
       id="title128">ActiveRecord::Base-&gt;MeasureSession</title>
    <path
       style="fill:none;stroke:#000000"
       inkscape:connector-curvature="0"
       id="path130"
       d="m 373.589,-239.909 c 2.321,22.756 7.487,62.856 17.411,95.909 3.717,12.381 9.589,25.655 14.595,35.945" />
  </g>
  <g
     class="edge"
     id="edge20"
     transform="translate(-267.765,292.5)">
    <title
       id="title133">ActiveRecord::Base-&gt;MeasureDefinition</title>
    <path
       style="fill:none;stroke:#000000"
       inkscape:connector-curvature="0"
       id="path135"
       d="m 394.744,-240.392 c 22.373,17.321 56.333,43.613 78.657,60.896" />
  </g>
</svg>
