<?xml version="1.0" encoding="UTF-8" standalone="no"?>
<!-- Generated by graphviz version 2.26.3 (20100126.1600)
 -->

<!-- Title: models_diagram Pages: 1 -->

<svg
   xmlns:dc="http://purl.org/dc/elements/1.1/"
   xmlns:cc="http://creativecommons.org/ns#"
   xmlns:rdf="http://www.w3.org/1999/02/22-rdf-syntax-ns#"
   xmlns:svg="http://www.w3.org/2000/svg"
   xmlns="http://www.w3.org/2000/svg"
   xmlns:sodipodi="http://sodipodi.sourceforge.net/DTD/sodipodi-0.dtd"
   xmlns:inkscape="http://www.inkscape.org/namespaces/inkscape"
   width="896.41876"
   height="1017.5"
   viewBox="0 0 717.13501 814"
   id="svg2"
   version="1.1"
   inkscape:version="0.48.5 r10040"
   sodipodi:docname="models_complete.svg">
  <metadata
     id="metadata295">
    <rdf:RDF>
      <cc:Work
         rdf:about="">
        <dc:format>image/svg+xml</dc:format>
        <dc:type
           rdf:resource="http://purl.org/dc/dcmitype/StillImage" />
        <dc:title></dc:title>
      </cc:Work>
    </rdf:RDF>
  </metadata>
  <defs
     id="defs293" />
  <sodipodi:namedview
     pagecolor="#ffffff"
     bordercolor="#666666"
     borderopacity="1"
     objecttolerance="10"
     gridtolerance="10"
     guidetolerance="10"
     inkscape:pageopacity="0"
     inkscape:pageshadow="2"
     inkscape:window-width="1920"
     inkscape:window-height="1032"
     id="namedview291"
     showgrid="false"
     fit-margin-left="20"
     fit-margin-right="20"
     fit-margin-bottom="20"
     fit-margin-top="20"
     inkscape:zoom="0.92776413"
     inkscape:cx="310.03024"
     inkscape:cy="524.02244"
     inkscape:window-x="0"
     inkscape:window-y="26"
     inkscape:window-maximized="1"
     inkscape:current-layer="svg2" />
  <g
     class="node"
     id="node2"
     transform="translate(-253.365,798.5)">
    <title
       id="title23">MeasureTransfer</title>
    <polyline
       style="fill:none;stroke:#000000"
       id="polyline25"
       points="335.5,-1 542.5,-1 " />
    <path
       style="fill:none;stroke:#000000"
       inkscape:connector-curvature="0"
       id="path27"
       d="m 542.5,-1 c 6,0 12,-6 12,-12" />
    <polyline
       style="fill:none;stroke:#000000"
       id="polyline29"
       points="554.5,-13 554.5,-213 " />
    <path
       style="fill:none;stroke:#000000"
       inkscape:connector-curvature="0"
       id="path31"
       d="m 554.5,-213 c 0,-6 -6,-12 -12,-12" />
    <polyline
       style="fill:none;stroke:#000000"
       id="polyline33"
       points="542.5,-225 335.5,-225 " />
    <path
       style="fill:none;stroke:#000000"
       inkscape:connector-curvature="0"
       id="path35"
       d="m 335.5,-225 c -6,0 -12,6 -12,12" />
    <polyline
       style="fill:none;stroke:#000000"
       id="polyline37"
       points="323.5,-213 323.5,-13 " />
    <path
       style="fill:none;stroke:#000000"
       inkscape:connector-curvature="0"
       id="path39"
       d="m 323.5,-13 c 0,6 6,12 12,12" />
    <text
       style="font-size:14px;text-anchor:middle;font-family:'Times Roman,serif'"
       id="text41"
       font-size="14.00"
       y="-208.39999"
       x="439">MeasureTransfer</text>
    <polyline
       style="fill:none;stroke:#000000"
       id="polyline43"
       points="323.5,-201 554.5,-201 " />
    <text
       style="font-size:14px;text-anchor:start;font-family:'Times Roman,serif'"
       id="text45"
       font-size="14.00"
       y="-184.39999"
       x="331.5">id :integer</text>
    <text
       style="font-size:14px;text-anchor:start;font-family:'Times Roman,serif'"
       id="text47"
       font-size="14.00"
       y="-168.39999"
       x="331.5">timestamp :datetime</text>
    <text
       style="font-size:14px;text-anchor:start;font-family:'Times Roman,serif'"
       id="text49"
       font-size="14.00"
       y="-152.39999"
       x="331.5">measure_session_id :integer</text>
    <text
       style="font-size:14px;text-anchor:start;font-family:'Times Roman,serif'"
       id="text51"
       font-size="14.00"
       y="-136.39999"
       x="331.5">jitter :float</text>
    <text
       style="font-size:14px;text-anchor:start;font-family:'Times Roman,serif'"
       id="text53"
       font-size="14.00"
       y="-120.4"
       x="331.5">datagrams_transfered :integer</text>
    <text
       style="font-size:14px;text-anchor:start;font-family:'Times Roman,serif'"
       id="text55"
       font-size="14.00"
       y="-104.4"
       x="331.5">datagrams_lost :integer</text>
    <text
       style="font-size:14px;text-anchor:start;font-family:'Times Roman,serif'"
       id="text57"
       font-size="14.00"
       y="-88.400002"
       x="331.5">bits_transfered :integer</text>
    <text
       style="font-size:14px;text-anchor:start;font-family:'Times Roman,serif'"
       id="text59"
       font-size="14.00"
       y="-72.400002"
       x="331.5">bits_lost :integer</text>
    <text
       style="font-size:14px;text-anchor:start;font-family:'Times Roman,serif'"
       id="text61"
       font-size="14.00"
       y="-56.400002"
       x="331.5">bandwidth :integer</text>
    <text
       style="font-size:14px;text-anchor:start;font-family:'Times Roman,serif'"
       id="text63"
       font-size="14.00"
       y="-40.400002"
       x="331.5">time_relative :float</text>
    <text
       style="font-size:14px;text-anchor:start;font-family:'Times Roman,serif'"
       id="text65"
       font-size="14.00"
       y="-24.4"
       x="331.5">created_at :datetime</text>
    <text
       style="font-size:14px;text-anchor:start;font-family:'Times Roman,serif'"
       id="text67"
       font-size="14.00"
       y="-8.3999996"
       x="331.5">updated_at :datetime</text>
  </g>
  <g
     class="node"
     id="node3"
     transform="translate(-253.365,798.5)">
    <title
       id="title70">OneOrchestrator</title>
    <polygon
       style="fill:none;stroke:#000000"
       id="polygon72"
       points="609,-319 609,-367 743,-367 743,-319 609,-319 " />
    <text
       style="font-size:14px;text-anchor:middle;font-family:'Times Roman,serif'"
       id="text74"
       font-size="14.00"
       y="-350.39999"
       x="676">OneOrchestrator</text>
    <polyline
       style="fill:none;stroke:#000000"
       id="polyline76"
       points="609,-343 743,-343 " />
    <text
       style="font-size:14px;text-anchor:middle;font-family:'Times Roman,serif'"
       id="text78"
       font-size="14.00"
       y="-326.39999"
       x="676" />
  </g>
  <g
     class="node"
     id="node4"
     transform="translate(-253.365,798.5)">
    <title
       id="title81">MeasureSession</title>
    <polyline
       style="fill:none;stroke:#000000"
       id="polyline83"
       points="336.5,-263 541.5,-263 " />
    <path
       style="fill:none;stroke:#000000"
       inkscape:connector-curvature="0"
       id="path85"
       d="m 541.5,-263 c 6,0 12,-6 12,-12" />
    <polyline
       style="fill:none;stroke:#000000"
       id="polyline87"
       points="553.5,-275 553.5,-411 " />
    <path
       style="fill:none;stroke:#000000"
       inkscape:connector-curvature="0"
       id="path89"
       d="m 553.5,-411 c 0,-6 -6,-12 -12,-12" />
    <polyline
       style="fill:none;stroke:#000000"
       id="polyline91"
       points="541.5,-423 336.5,-423 " />
    <path
       style="fill:none;stroke:#000000"
       inkscape:connector-curvature="0"
       id="path93"
       d="m 336.5,-423 c -6,0 -12,6 -12,12" />
    <polyline
       style="fill:none;stroke:#000000"
       id="polyline95"
       points="324.5,-411 324.5,-275 " />
    <path
       style="fill:none;stroke:#000000"
       inkscape:connector-curvature="0"
       id="path97"
       d="m 324.5,-275 c 0,6 6,12 12,12" />
    <text
       style="font-size:14px;text-anchor:middle;font-family:'Times Roman,serif'"
       id="text99"
       font-size="14.00"
       y="-406.39999"
       x="439">MeasureSession</text>
    <polyline
       style="fill:none;stroke:#000000"
       id="polyline101"
       points="324.5,-399 553.5,-399 " />
    <text
       style="font-size:14px;text-anchor:start;font-family:'Times Roman,serif'"
       id="text103"
       font-size="14.00"
       y="-382.39999"
       x="332.5">id :integer</text>
    <text
       style="font-size:14px;text-anchor:start;font-family:'Times Roman,serif'"
       id="text105"
       font-size="14.00"
       y="-366.39999"
       x="332.5">measure_definition_id :integer</text>
    <text
       style="font-size:14px;text-anchor:start;font-family:'Times Roman,serif'"
       id="text107"
       font-size="14.00"
       y="-350.39999"
       x="332.5">status :integer</text>
    <text
       style="font-size:14px;text-anchor:start;font-family:'Times Roman,serif'"
       id="text109"
       font-size="14.00"
       y="-334.39999"
       x="332.5">seq :integer</text>
    <text
       style="font-size:14px;text-anchor:start;font-family:'Times Roman,serif'"
       id="text111"
       font-size="14.00"
       y="-318.39999"
       x="332.5">started_at :datetime</text>
    <text
       style="font-size:14px;text-anchor:start;font-family:'Times Roman,serif'"
       id="text113"
       font-size="14.00"
       y="-302.39999"
       x="332.5">finished_at :datetime</text>
    <text
       style="font-size:14px;text-anchor:start;font-family:'Times Roman,serif'"
       id="text115"
       font-size="14.00"
       y="-286.39999"
       x="332.5">created_at :datetime</text>
    <text
       style="font-size:14px;text-anchor:start;font-family:'Times Roman,serif'"
       id="text117"
       font-size="14.00"
       y="-270.39999"
       x="332.5">updated_at :datetime</text>
  </g>
  <g
     class="edge"
     id="edge6"
     transform="translate(-253.365,798.5)">
    <title
       id="title120">MeasureSession-&gt;MeasureTransfer</title>
    <path
       style="fill:none;stroke:#8404df"
       inkscape:connector-curvature="0"
       id="path122"
       d="m 439,-254.806 c 0,6.362 0,12.84 0,19.35" />
    <ellipse
       style="fill:none;stroke:#8404df"
       sodipodi:ry="4"
       sodipodi:rx="4"
       sodipodi:cy="-258.88"
       sodipodi:cx="439"
       d="m 443,-258.88 c 0,2.20913 -1.79086,4 -4,4 -2.20914,0 -4,-1.79087 -4,-4 0,-2.20914 1.79086,-4 4,-4 2.20914,0 4,1.79086 4,4 z"
       id="ellipse124"
       ry="4"
       rx="4"
       cy="-258.88"
       cx="439" />
    <polygon
       style="fill:#8404df;stroke:#8404df"
       id="polygon126"
       points="439,-225.211 439,-230.211 434.5,-225.212 439,-235.211 439,-235.211 439,-235.211 443.5,-225.211 439,-230.211 439,-225.211 439,-225.211 " />
  </g>
  <g
     class="node"
     id="node5"
     transform="translate(-253.365,798.5)">
    <title
       id="title129">Orchestrator</title>
    <polygon
       style="fill:none;stroke:#000000"
       id="polygon131"
       points="623.5,-549 623.5,-597 728.5,-597 728.5,-549 623.5,-549 " />
    <text
       style="font-size:14px;text-anchor:middle;font-family:'Times Roman,serif'"
       id="text133"
       font-size="14.00"
       y="-580.40002"
       x="676">Orchestrator</text>
    <polyline
       style="fill:none;stroke:#000000"
       id="polyline135"
       points="623.5,-573 728.5,-573 " />
    <text
       style="font-size:14px;text-anchor:middle;font-family:'Times Roman,serif'"
       id="text137"
       font-size="14.00"
       y="-556.40002"
       x="676" />
  </g>
  <g
     class="edge"
     id="edge4"
     transform="translate(-253.365,798.5)">
    <title
       id="title140">Orchestrator-&gt;OneOrchestrator</title>
    <path
       style="fill:none;stroke:#000000"
       inkscape:connector-curvature="0"
       id="path142"
       d="m 676,-548.821 c 0,44.174 0,137.431 0,181.621" />
  </g>
  <g
     class="node"
     id="node6"
     transform="translate(-253.365,798.5)">
    <title
       id="title145">OneVirtualMachine</title>
    <polygon
       style="fill:none;stroke:#000000"
       id="polygon147"
       points="804,-319 804,-367 954,-367 954,-319 804,-319 " />
    <text
       style="font-size:14px;text-anchor:middle;font-family:'Times Roman,serif'"
       id="text149"
       font-size="14.00"
       y="-350.39999"
       x="879">OneVirtualMachine</text>
    <polyline
       style="fill:none;stroke:#000000"
       id="polyline151"
       points="804,-343 954,-343 " />
    <text
       style="font-size:14px;text-anchor:middle;font-family:'Times Roman,serif'"
       id="text153"
       font-size="14.00"
       y="-326.39999"
       x="879" />
  </g>
  <g
     class="node"
     id="node8"
     transform="translate(-253.365,798.5)">
    <title
       id="title167">MeasureDefinition</title>
    <polyline
       style="fill:none;stroke:#000000"
       id="polyline169"
       points="411.5,-461 556.5,-461 " />
    <path
       style="fill:none;stroke:#000000"
       inkscape:connector-curvature="0"
       id="path171"
       d="m 556.5,-461 c 6,0 12,-6 12,-12" />
    <polyline
       style="fill:none;stroke:#000000"
       id="polyline173"
       points="568.5,-473 568.5,-673 " />
    <path
       style="fill:none;stroke:#000000"
       inkscape:connector-curvature="0"
       id="path175"
       d="m 568.5,-673 c 0,-6 -6,-12 -12,-12" />
    <polyline
       style="fill:none;stroke:#000000"
       id="polyline177"
       points="556.5,-685 411.5,-685 " />
    <path
       style="fill:none;stroke:#000000"
       inkscape:connector-curvature="0"
       id="path179"
       d="m 411.5,-685 c -6,0 -12,6 -12,12" />
    <polyline
       style="fill:none;stroke:#000000"
       id="polyline181"
       points="399.5,-673 399.5,-473 " />
    <path
       style="fill:none;stroke:#000000"
       inkscape:connector-curvature="0"
       id="path183"
       d="m 399.5,-473 c 0,6 6,12 12,12" />
    <text
       style="font-size:14px;text-anchor:middle;font-family:'Times Roman,serif'"
       id="text185"
       font-size="14.00"
       y="-668.40002"
       x="484">MeasureDefinition</text>
    <polyline
       style="fill:none;stroke:#000000"
       id="polyline187"
       points="399.5,-661 568.5,-661 " />
    <text
       style="font-size:14px;text-anchor:start;font-family:'Times Roman,serif'"
       id="text189"
       font-size="14.00"
       y="-644.40002"
       x="407.5">id :integer</text>
    <text
       style="font-size:14px;text-anchor:start;font-family:'Times Roman,serif'"
       id="text191"
       font-size="14.00"
       y="-628.40002"
       x="407.5">vm :string</text>
    <text
       style="font-size:14px;text-anchor:start;font-family:'Times Roman,serif'"
       id="text193"
       font-size="14.00"
       y="-612.40002"
       x="407.5">source :integer</text>
    <text
       style="font-size:14px;text-anchor:start;font-family:'Times Roman,serif'"
       id="text195"
       font-size="14.00"
       y="-596.40002"
       x="407.5">destination :integer</text>
    <text
       style="font-size:14px;text-anchor:start;font-family:'Times Roman,serif'"
       id="text197"
       font-size="14.00"
       y="-580.40002"
       x="407.5">bandwidth :integer</text>
    <text
       style="font-size:14px;text-anchor:start;font-family:'Times Roman,serif'"
       id="text199"
       font-size="14.00"
       y="-564.40002"
       x="407.5">cycles :integer</text>
    <text
       style="font-size:14px;text-anchor:start;font-family:'Times Roman,serif'"
       id="text201"
       font-size="14.00"
       y="-548.40002"
       x="407.5">supervisor :string</text>
    <text
       style="font-size:14px;text-anchor:start;font-family:'Times Roman,serif'"
       id="text203"
       font-size="14.00"
       y="-532.40002"
       x="407.5">started_at :datetime</text>
    <text
       style="font-size:14px;text-anchor:start;font-family:'Times Roman,serif'"
       id="text205"
       font-size="14.00"
       y="-516.40002"
       x="407.5">finished_at :datetime</text>
    <text
       style="font-size:14px;text-anchor:start;font-family:'Times Roman,serif'"
       id="text207"
       font-size="14.00"
       y="-500.39999"
       x="407.5">description :text</text>
    <text
       style="font-size:14px;text-anchor:start;font-family:'Times Roman,serif'"
       id="text209"
       font-size="14.00"
       y="-484.39999"
       x="407.5">created_at :datetime</text>
    <text
       style="font-size:14px;text-anchor:start;font-family:'Times Roman,serif'"
       id="text211"
       font-size="14.00"
       y="-468.39999"
       x="407.5">updated_at :datetime</text>
  </g>
  <g
     class="edge"
     id="edge18"
     transform="translate(-253.365,798.5)">
    <title
       id="title214">MeasureDefinition-&gt;MeasureTransfer</title>
    <path
       style="fill:none;stroke:#c54b4e"
       inkscape:connector-curvature="0"
       id="path216"
       d="m 553.434,-451.484 c 3.391,9.115 6.315,18.33 8.566,27.484 17.194,69.917 24.354,94.244 0,162 -3.404,9.47 -7.699,18.766 -12.63,27.8" />
    <polygon
       style="fill:#c54b4e;stroke:#c54b4e"
       id="polygon218"
       points="549.739,-460.939 551.559,-456.282 553.931,-462.577 553.379,-451.625 553.379,-451.625 553.379,-451.625 545.548,-459.302 551.559,-456.282 549.739,-460.939 549.739,-460.939 " />
    <polygon
       style="fill:#c54b4e;stroke:#c54b4e"
       id="polygon220"
       points="544.237,-225.257 546.726,-229.593 540.334,-227.497 549.215,-233.93 549.215,-233.93 549.215,-233.93 548.14,-223.017 546.726,-229.593 544.237,-225.257 544.237,-225.257 " />
  </g>
  <g
     class="edge"
     id="edge16"
     transform="translate(-253.365,798.5)">
    <title
       id="title223">MeasureDefinition-&gt;MeasureSession</title>
    <path
       style="fill:none;stroke:#a52ee3"
       inkscape:connector-curvature="0"
       id="path225"
       d="m 460.46,-452.685 c -1.281,6.55 -2.558,13.076 -3.814,19.495" />
    <ellipse
       style="fill:none;stroke:#a52ee3"
       sodipodi:ry="4.00001"
       sodipodi:rx="4.00001"
       sodipodi:cy="-456.76999"
       sodipodi:cx="461.259"
       d="m 465.25901,-456.76999 c 0,2.20915 -1.79086,4.00001 -4.00001,4.00001 -2.20914,0 -4.00001,-1.79086 -4.00001,-4.00001 0,-2.20914 1.79087,-4.00001 4.00001,-4.00001 2.20915,0 4.00001,1.79087 4.00001,4.00001 z"
       id="ellipse227"
       ry="4.00001"
       rx="4.00001"
       cy="-456.76999"
       cx="461.259" />
    <polygon
       style="fill:#a52ee3;stroke:#a52ee3"
       id="polygon229"
       points="454.692,-423.206 455.653,-428.113 450.276,-424.07 456.613,-433.02 456.613,-433.02 456.613,-433.02 459.109,-422.342 455.653,-428.113 454.692,-423.206 454.692,-423.206 " />
  </g>
  <g
     class="node"
     id="node9"
     transform="translate(-253.365,798.5)">
    <title
       id="title232">VirtualMachine</title>
    <polygon
       style="fill:none;stroke:#000000"
       id="polygon234"
       points="818,-549 818,-597 940,-597 940,-549 818,-549 " />
    <text
       style="font-size:14px;text-anchor:middle;font-family:'Times Roman,serif'"
       id="text236"
       font-size="14.00"
       y="-580.40002"
       x="879">VirtualMachine</text>
    <polyline
       style="fill:none;stroke:#000000"
       id="polyline238"
       points="818,-573 940,-573 " />
    <text
       style="font-size:14px;text-anchor:middle;font-family:'Times Roman,serif'"
       id="text240"
       font-size="14.00"
       y="-556.40002"
       x="879" />
  </g>
  <g
     class="edge"
     id="edge12"
     transform="translate(-253.365,798.5)">
    <title
       id="title243">VirtualMachine-&gt;OneVirtualMachine</title>
    <path
       style="fill:none;stroke:#000000"
       inkscape:connector-curvature="0"
       id="path245"
       d="m 879,-548.821 c 0,44.174 0,137.431 0,181.621" />
  </g>
  <g
     class="node"
     id="node10"
     transform="translate(-253.365,798.5)">
    <title
       id="title248">ActiveRecord::Base</title>
    <ellipse
       style="fill:none;stroke:#000000"
       sodipodi:ry="18"
       sodipodi:rx="102.135"
       sodipodi:cy="-764"
       sodipodi:cx="372"
       d="m 474.135,-764 c 0,9.94113 -45.7274,18 -102.135,18 -56.4076,0 -102.135,-8.05887 -102.135,-18 0,-9.94113 45.7274,-18 102.135,-18 56.4076,0 102.135,8.05887 102.135,18 z"
       id="ellipse250"
       ry="18"
       rx="102.135"
       cy="-764"
       cx="372" />
    <text
       style="font-size:14px;text-anchor:middle;font-family:'Times Roman,serif'"
       id="text252"
       font-size="14.00"
       y="-759.40002"
       x="372">ActiveRecord::Base</text>
  </g>
  <g
     class="edge"
     id="edge2"
     transform="translate(-253.365,798.5)">
    <title
       id="title255">ActiveRecord::Base-&gt;MeasureTransfer</title>
    <path
       style="fill:none;stroke:#000000"
       inkscape:connector-curvature="0"
       id="path257"
       d="M 364.39,-745.993 C 337.412,-679.439 251.337,-441.904 316,-262 c 4.538,12.627 10.661,24.945 17.763,36.743" />
  </g>
  <g
     class="edge"
     id="edge8"
     transform="translate(-253.365,798.5)">
    <title
       id="title260">ActiveRecord::Base-&gt;MeasureSession</title>
    <path
       style="fill:none;stroke:#000000"
       inkscape:connector-curvature="0"
       id="path262"
       d="m 371.099,-745.89 c -1.932,47.572 -4.495,179.723 19.901,285.89 2.803,12.197 6.737,24.762 11.16,36.928" />
  </g>
  <g
     class="edge"
     id="edge20"
     transform="translate(-253.365,798.5)">
    <title
       id="title265">ActiveRecord::Base-&gt;MeasureDefinition</title>
    <path
       style="fill:none;stroke:#000000"
       inkscape:connector-curvature="0"
       id="path267"
       d="m 382.537,-746.031 c 8.658,14.765 21.724,37.047 35.624,60.753" />
  </g>
  <g
     class="node"
     id="node15"
     transform="translate(-253.365,798.5)">
    <title
       id="title270">Object</title>
    <ellipse
       style="fill:none;stroke:#000000"
       sodipodi:ry="18"
       sodipodi:rx="41.089802"
       sodipodi:cy="-764"
       sodipodi:cx="773"
       d="m 814.0898,-764 c 0,9.94113 -18.39653,18 -41.0898,18 -22.69327,0 -41.0898,-8.05887 -41.0898,-18 0,-9.94113 18.39653,-18 41.0898,-18 22.69327,0 41.0898,8.05887 41.0898,18 z"
       id="ellipse272"
       ry="18"
       rx="41.089802"
       cy="-764"
       cx="773" />
    <text
       style="font-size:14px;text-anchor:middle;font-family:'Times Roman,serif'"
       id="text274"
       font-size="14.00"
       y="-759.40002"
       x="773">Object</text>
  </g>
  <g
     class="edge"
     id="edge10"
     transform="translate(-253.365,798.5)">
    <title
       id="title277">Object-&gt;Orchestrator</title>
    <path
       style="fill:none;stroke:#000000"
       inkscape:connector-curvature="0"
       id="path279"
       d="m 764.048,-746.374 c -17.447,34.355 -56.021,110.311 -75.812,149.28" />
  </g>
  <g
     class="edge"
     id="edge22"
     transform="translate(-253.365,798.5)">
    <title
       id="title287">Object-&gt;VirtualMachine</title>
    <path
       style="fill:none;stroke:#000000"
       inkscape:connector-curvature="0"
       id="path289"
       d="m 782.782,-746.374 c 19.066,34.355 61.22,110.311 82.847,149.28" />
  </g>
</svg>
